<?xml version="1.0" standalone="no"?>
<!DOCTYPE svg PUBLIC "-//W3C//DTD SVG 20010904//EN"
 "http://www.w3.org/TR/2001/REC-SVG-20010904/DTD/svg10.dtd">
<svg version="1.0" xmlns="http://www.w3.org/2000/svg"
 width="460.000000pt" height="460.000000pt" viewBox="0 0 460.000000 460.000000"
 preserveAspectRatio="xMidYMid meet">
<metadata>
Created by potrace 1.11, written by Peter Selinger 2001-2013
</metadata>
<g transform="translate(0.000000,460.000000) scale(0.100000,-0.100000)"
fill="#000000" stroke="none">
<path d="M0 2300 l0 -2300 250 0 c138 0 250 3 250 8 0 4 -4 23 -9 42 -22 81
-39 224 -36 305 8 200 54 413 109 499 54 84 166 173 249 198 20 6 54 25 75 42
37 30 67 46 307 163 106 51 129 58 193 61 48 3 72 1 72 -7 0 -6 -9 -11 -20
-11 -30 0 -111 -44 -140 -75 -39 -42 -54 -47 -95 -30 -38 17 -53 11 -68 -27
-7 -20 9 -35 16 -16 4 8 6 7 6 -4 1 -9 -4 -20 -9 -23 -5 -3 -10 -33 -10 -65 0
-55 -2 -60 -25 -66 -14 -3 -36 -3 -50 0 -24 6 -24 7 -10 46 8 22 12 40 8 40
-3 0 0 7 7 15 7 9 11 18 8 20 -7 7 -25 -16 -30 -35 -2 -8 -10 -21 -18 -28 -8
-8 -9 -11 -3 -7 9 4 11 1 7 -9 -3 -9 -10 -13 -15 -10 -8 5 -13 -10 -10 -29 1
-5 -3 -6 -8 -2 -6 3 -19 -12 -31 -34 -18 -37 -18 -40 -3 -34 14 5 12 1 -4 -13
-25 -21 -45 -83 -23 -69 9 5 11 4 6 -4 -4 -6 -11 -9 -16 -6 -9 6 -38 -82 -61
-183 -11 -48 -11 -53 7 -66 10 -8 33 -17 49 -21 17 -3 26 -9 20 -13 -5 -4 -10
-11 -10 -17 0 -13 -40 -146 -62 -205 -18 -51 -67 -236 -77 -292 -6 -33 -5 -36
13 -31 11 3 26 11 32 19 18 22 48 18 42 -6 -5 -17 0 -20 31 -20 31 0 36 3 37
25 2 43 4 48 14 52 7 2 9 -12 7 -37 -3 -24 0 -40 7 -40 13 0 25 44 18 70 -3
11 1 21 10 25 13 4 15 -2 9 -45 -4 -30 -3 -50 3 -50 10 0 25 75 19 100 -2 7 4
15 14 17 14 4 15 -1 7 -34 -11 -50 -11 -83 0 -83 10 0 34 99 29 120 -2 7 3 15
11 17 10 4 12 -2 8 -23 -15 -76 -18 -114 -9 -114 5 0 14 26 20 58 l11 57 -5
-57 c-4 -38 -2 -58 5 -58 6 0 11 6 11 13 0 8 4 7 10 -3 7 -11 10 -4 10 26 0
23 5 65 10 94 8 40 7 56 -2 61 -15 10 33 23 59 16 15 -4 15 -5 -3 -6 -19 -1
-23 -10 -33 -77 -6 -42 -14 -87 -17 -100 -3 -13 -2 -24 4 -24 5 0 9 8 8 17 0
11 16 26 44 41 25 14 84 49 133 79 131 82 187 73 203 -33 3 -24 10 -44 14 -44
4 0 13 -13 19 -30 l10 -30 150 0 c173 0 182 2 262 70 42 34 51 37 42 13 -7
-19 -5 -18 17 11 10 13 10 17 3 12 -7 -4 -13 -2 -13 3 0 6 18 23 40 37 45 30
50 39 18 31 -33 -9 -49 9 -36 38 13 29 65 49 102 39 17 -4 26 -2 26 6 0 6 4 9
8 6 4 -2 8 3 9 13 2 20 -27 25 -40 7 -6 -7 -7 -6 -4 4 3 11 18 15 55 15 49 0
50 -1 50 -28 -1 -15 6 -35 15 -45 10 -10 17 -33 17 -50 0 -29 -2 -31 -20 -22
-11 5 -29 15 -40 20 -11 6 -20 7 -20 3 0 -10 42 -37 204 -135 l79 -48 162 0
162 0 27 48 c28 48 65 103 91 135 23 27 57 21 177 -37 131 -62 162 -87 153
-123 -5 -22 -3 -24 22 -21 l28 3 6 100 5 100 2 -102 c2 -84 5 -103 17 -103 12
0 15 16 17 80 1 44 2 90 2 102 1 15 -6 24 -19 26 -11 2 -24 8 -29 12 -5 5 20
2 55 -6 58 -14 86 -24 63 -24 -5 0 -11 -43 -12 -95 -2 -80 0 -95 13 -95 12 0
15 14 16 63 1 34 5 76 10 92 5 20 7 0 5 -63 -2 -83 0 -92 16 -92 16 0 18 9 18
66 0 45 3 63 11 58 8 -4 9 -26 5 -65 -6 -47 -4 -59 7 -59 14 0 27 58 27 123 0
17 3 27 7 24 3 -4 5 -38 4 -77 -2 -55 1 -70 12 -70 16 0 27 41 27 96 0 19 4
34 8 34 4 0 6 -29 4 -65 -4 -55 -2 -65 12 -65 12 0 16 11 17 48 1 26 0 51 -1
57 -1 5 2 7 6 2 4 -4 7 -30 5 -58 -2 -44 0 -50 16 -47 10 2 20 15 24 33 l7 30
1 -32 1 -32 430 -1 430 0 0 152 c-1 129 -3 150 -14 136 -7 -10 -19 -18 -27
-18 -11 0 -11 -2 1 -10 13 -8 13 -10 -2 -10 -21 0 -25 15 -33 115 -20 269 -49
438 -132 775 -20 82 -96 246 -130 283 -31 32 -23 34 57 13 30 -8 57 -13 58
-11 6 6 -98 35 -168 46 -36 6 -107 19 -157 30 -103 21 -168 24 -208 9 -23 -9
-25 -13 -15 -25 10 -12 9 -15 -4 -15 -9 0 -16 6 -16 13 -1 6 -9 2 -19 -10
l-19 -22 -6 31 c-10 51 -7 64 17 75 12 6 37 8 55 5 24 -3 42 1 63 17 16 12 64
30 106 40 56 14 69 20 45 20 -38 1 -140 -26 -160 -41 -9 -8 -12 5 -12 62 0 66
-2 74 -30 102 -19 19 -30 40 -30 58 0 15 -7 33 -15 40 -20 16 -83 6 -137 -21
-59 -30 -80 -18 -96 58 -13 65 -81 185 -122 214 -35 26 -145 39 -263 32 l-99
-6 7 74 c3 41 6 105 6 142 l-1 69 38 -6 c51 -9 98 20 107 66 3 18 20 61 37 96
39 83 88 265 86 322 0 29 -2 36 -5 18 -3 -17 -11 -28 -20 -28 -12 0 -14 6 -8
33 16 68 2 117 -50 170 -34 34 -68 34 -107 2 -31 -26 -54 -34 -42 -13 5 7 2 9
-9 5 -10 -4 -17 0 -19 11 -6 27 13 61 36 65 16 3 15 5 -6 6 -27 1 -42 31 -17
31 11 0 9 20 -6 85 -2 11 -9 49 -15 85 -5 36 -13 80 -16 98 -6 29 -4 32 20 32
23 0 26 4 27 38 0 20 4 90 7 155 l7 117 -32 0 c-29 0 -33 3 -33 25 0 14 4 25
10 25 6 0 6 9 1 23 -7 19 -5 28 10 40 24 21 33 21 64 1 19 -12 22 -20 15 -33
-6 -13 -4 -22 11 -34 25 -22 29 -21 29 3 0 11 -6 20 -12 20 -10 0 -10 2 0 8 9
7 8 13 -8 27 -21 19 -18 35 5 35 9 0 12 -6 9 -15 -4 -8 -1 -15 5 -15 6 0 11 5
11 12 0 6 7 4 18 -5 10 -10 31 -17 45 -17 18 0 27 -5 27 -16 0 -11 -6 -14 -20
-9 -11 4 -20 2 -20 -4 0 -15 36 -14 52 2 25 25 86 49 108 42 14 -4 28 -1 41
11 25 22 25 38 -1 24 -11 -6 -37 -7 -61 -4 -28 5 -40 4 -36 -3 4 -6 -5 -13
-19 -16 -31 -5 -79 35 -81 70 -2 24 34 38 68 28 11 -4 26 -2 34 5 7 6 39 13
71 16 87 6 78 14 -18 14 -103 0 -179 9 -172 21 3 5 22 6 44 3 21 -4 46 -1 56
5 16 9 15 10 -11 7 -16 -2 -22 -1 -12 1 10 3 21 12 24 21 4 9 11 20 16 23 14
10 -1 29 -24 29 -21 0 -25 10 -8 27 9 9 3 16 -22 27 -34 16 -34 16 -4 10 67
-14 73 -5 48 70 -12 35 -11 40 4 51 10 7 21 11 24 9 4 -2 19 20 34 49 36 69
40 73 70 59 20 -9 25 -9 25 3 0 9 6 12 15 9 8 -4 15 -1 15 6 0 7 12 0 27 -14
30 -31 43 -19 19 16 -18 25 -21 53 -6 43 17 -10 11 3 -12 30 -32 36 -49 33
-37 -7 13 -46 12 -48 -16 -46 -17 2 -25 8 -25 20 0 10 -4 18 -10 18 -5 0 -10
5 -10 10 0 6 7 10 15 10 8 0 15 5 15 10 0 7 -410 10 -1212 9 -744 -1 -1194 -5
-1163 -11 28 -4 102 -15 165 -22 63 -8 153 -21 200 -29 47 -9 112 -18 145 -22
125 -13 443 -56 525 -70 47 -8 121 -20 165 -27 64 -9 75 -13 55 -20 -18 -5
-14 -6 16 -3 22 3 44 2 48 -2 4 -4 27 -6 52 -4 35 2 44 0 39 -10 -6 -8 -4 -10
5 -4 13 8 30 -10 30 -32 0 -16 -57 -17 -118 -3 -23 6 -186 30 -363 55 -176 24
-323 46 -327 49 -4 2 -93 16 -197 31 -382 53 -470 66 -485 70 -8 2 -95 16
-194 30 -165 23 -207 25 -542 25 l-364 0 0 -2300z m3400 2105 c0 -8 -4 -15
-10 -15 -5 0 -10 7 -10 15 0 8 5 15 10 15 6 0 10 -7 10 -15z m-2530 -35 c0
-16 -6 -31 -12 -33 -10 -4 -10 -7 0 -15 14 -10 15 -69 6 -432 -2 -113 -6 -260
-7 -328 -2 -96 -5 -121 -15 -117 -8 3 -10 0 -6 -6 4 -7 -1 -9 -12 -7 -11 2
-18 10 -17 16 2 7 -3 12 -11 12 -23 0 -29 33 -9 49 16 12 16 13 1 8 -27 -9
-32 12 -6 22 18 8 19 10 5 10 -11 1 -17 6 -14 14 2 6 10 11 16 10 15 -4 14 14
-1 19 -8 3 -14 26 -15 59 -1 30 -2 54 -3 54 0 0 -2 42 -4 93 -2 78 0 92 13 92
13 0 13 2 2 9 -8 5 -15 34 -18 77 -2 38 -6 77 -8 87 -2 9 1 17 6 17 5 0 6 15
4 33 -5 29 -5 30 6 10 7 -13 16 -23 21 -23 5 0 2 13 -7 29 -9 18 -11 32 -5 36
5 3 7 12 3 20 -3 9 1 15 8 15 11 0 11 2 2 8 -7 4 -14 17 -16 27 -2 11 -7 27
-10 35 -11 29 -4 50 17 51 17 1 18 2 4 6 -10 2 -18 11 -18 19 0 8 4 13 10 9 5
-3 21 8 36 24 31 35 54 31 54 -9z m1206 -76 c18 -14 18 -14 -6 -3 -31 14 -36
19 -24 19 6 0 19 -7 30 -16z m-241 -30 c9 -14 16 -14 34 -5 12 7 45 14 72 16
43 3 49 2 38 -11 -6 -8 -21 -14 -33 -15 -21 0 -21 0 1 -9 22 -9 23 -40 2 -40
-6 0 -33 -16 -62 -35 -28 -19 -57 -35 -64 -35 -6 0 -20 -10 -30 -22 -10 -13
-29 -29 -41 -36 -18 -10 -22 -10 -22 3 0 8 -4 15 -10 15 -5 0 -10 -6 -10 -14
0 -8 -16 -20 -36 -26 -32 -11 -38 -10 -46 4 -5 9 -16 16 -23 16 -8 0 -15 9
-15 19 0 22 40 53 94 76 20 9 36 22 36 30 0 8 9 15 20 15 11 0 19 3 18 8 -3
16 16 44 36 52 29 12 27 12 41 -6z m520 7 c-3 -5 -21 -15 -40 -21 -45 -15 -68
-2 -29 16 34 15 78 18 69 5z m1005 -7 c0 -2 -9 -4 -20 -4 -11 0 -20 4 -20 9 0
5 9 7 20 4 11 -3 20 -7 20 -9z m-2595 -45 c11 -16 1 -19 -13 -3 -7 8 -8 14 -3
14 5 0 13 -5 16 -11z m1479 -10 c-34 -13 -50 -11 -29 5 11 8 26 11 34 8 12 -4
11 -7 -5 -13z m251 11 c-3 -5 -13 -10 -21 -10 -8 0 -14 5 -14 10 0 6 9 10 21
10 11 0 17 -4 14 -10z m-83 -28 c-7 -2 -9 -9 -6 -14 4 -7 2 -8 -4 -4 -6 4 -9
13 -6 21 4 8 11 12 17 8 8 -5 7 -8 -1 -11z m880 -19 c-7 -3 -19 -12 -27 -20
-10 -9 -22 -12 -33 -7 -16 7 -16 7 1 11 9 3 17 9 17 14 0 5 7 9 15 9 8 0 15 5
15 12 0 9 3 8 13 -1 10 -11 9 -14 -1 -18z m-1237 -2 c-13 -11 -77 -32 -83 -27
-6 7 51 35 73 36 11 0 15 -3 10 -9z m425 -11 c0 -5 -2 -10 -4 -10 -3 0 -8 5
-11 10 -3 6 -1 10 4 10 6 0 11 -4 11 -10z m-400 -10 c0 -5 -5 -10 -11 -10 -5
0 -7 5 -4 10 3 6 8 10 11 10 2 0 4 -4 4 -10z m460 -5 c30 -15 70 -60 70 -78 0
-6 -16 8 -36 31 -19 23 -44 42 -55 42 -10 0 -19 5 -19 10 0 13 6 13 40 -5z
m714 -70 c4 -12 -2 -15 -27 -14 -18 1 -24 3 -14 6 9 2 17 9 17 14 0 15 17 10
24 -6z m-1108 -69 c7 -17 58 -40 76 -34 14 5 38 -15 38 -31 0 -15 51 -40 92
-45 18 -2 47 -8 63 -12 40 -10 126 -64 120 -74 -3 -4 31 -38 75 -74 47 -39 80
-74 80 -85 0 -10 11 -29 23 -42 13 -13 32 -48 42 -76 11 -29 23 -53 28 -53 4
0 5 -5 2 -10 -4 -6 -16 -8 -27 -4 -17 5 -19 2 -16 -23 2 -16 9 -28 18 -29 8
-1 19 -2 25 -2 11 -2 -36 -37 -50 -37 -17 0 -55 -39 -55 -56 0 -9 -10 -29 -21
-44 -17 -21 -19 -29 -9 -35 7 -4 10 -14 8 -21 -3 -8 12 -26 34 -42 21 -16 36
-33 33 -37 -3 -5 -1 -20 4 -33 l10 -26 -97 -3 c-53 -2 -100 0 -103 5 -14 19
-276 -14 -264 -34 3 -4 -4 -10 -15 -14 -11 -3 -20 -10 -20 -15 0 -5 14 -4 31
2 55 19 41 1 -18 -23 -55 -23 -70 -24 -270 -24 -116 0 -215 -3 -219 -7 -4 -5
8 -8 27 -8 26 0 30 -3 19 -10 -13 -8 -12 -10 3 -10 21 0 69 -48 61 -61 -5 -8
-108 -59 -120 -59 -6 0 -61 -38 -89 -61 -11 -9 -29 -19 -40 -22 -11 -3 10 -5
48 -6 37 0 67 3 67 8 0 8 42 19 105 26 14 1 25 -2 25 -6 0 -5 6 -9 14 -9 18 0
10 -33 -13 -54 -9 -9 -35 -20 -57 -25 l-39 -9 48 -1 c66 -1 102 17 171 85 l59
58 -7 -59 c-9 -80 -24 -125 -49 -153 -21 -23 -127 -61 -176 -63 -18 -1 -20 -3
-8 -6 28 -7 159 25 182 45 24 20 57 99 79 192 16 63 51 110 83 110 14 0 53
-47 53 -64 0 -19 40 -88 77 -133 19 -24 32 -47 29 -52 -4 -5 9 -19 28 -30 40
-25 50 -45 36 -72 -12 -22 -44 -24 -81 -5 -24 12 -28 11 -70 -26 -24 -22 -56
-46 -71 -54 -16 -8 -28 -19 -28 -24 0 -13 -37 -13 -45 0 -3 6 -23 10 -43 10
l-37 -1 23 -18 c28 -24 31 -81 4 -81 -20 0 -64 -29 -44 -30 6 0 12 -8 12 -17
0 -27 48 -26 78 2 19 18 33 22 66 18 81 -9 88 -12 80 -36 -4 -12 -8 -33 -8
-47 -1 -14 -8 -26 -16 -27 -54 -10 -177 -19 -185 -15 -5 4 -22 5 -38 3 -32 -3
-46 22 -28 51 14 23 14 23 -19 32 -16 5 -20 4 -12 -2 14 -10 3 -23 -30 -35
-15 -5 -18 -18 -18 -71 0 -36 5 -68 10 -71 13 -8 13 -51 0 -75 -9 -17 -18 -19
-73 -14 -62 6 -83 13 -59 21 6 3 9 9 6 14 -3 6 -11 5 -20 -2 -11 -9 -14 -8
-14 5 0 9 -7 16 -15 16 -8 0 -15 5 -15 11 0 5 -4 7 -10 4 -5 -3 -10 1 -10 9 0
9 -5 16 -10 16 -33 0 -130 140 -130 188 0 6 -4 12 -9 12 -5 0 -12 12 -15 28
-2 15 -3 -7 -1 -49 5 -85 -7 -109 -42 -91 -19 11 -63 89 -63 113 0 8 -18 55
-39 104 -79 179 -91 223 -91 321 0 115 7 147 36 179 20 22 32 26 71 24 27 -1
65 4 86 11 l37 14 -1 76 c-1 43 -9 99 -20 132 -26 79 -46 385 -26 405 4 3 2
12 -4 19 -14 17 -3 34 20 34 10 0 26 10 34 23 14 19 18 20 27 7 9 -11 13 -12
16 -3 3 7 16 28 30 48 13 20 24 40 24 45 0 6 5 10 10 10 6 0 10 4 10 9 0 16
-38 0 -65 -27 -16 -16 -23 -32 -20 -44 5 -13 1 -18 -13 -18 -16 0 -19 5 -15
23 3 12 10 28 16 35 8 10 5 14 -12 19 -20 5 -20 6 -4 19 16 12 15 13 -14 14
-40 0 -41 9 -7 39 19 16 29 20 37 12 8 -8 7 -11 -4 -11 -10 -1 -9 -3 4 -11 20
-11 41 -3 31 13 -4 7 2 8 17 3 13 -4 26 -7 29 -7 22 0 30 4 30 17 0 10 10 15
30 15 23 0 30 -4 28 -16 -5 -31 17 -24 41 12 22 32 27 46 33 92 1 7 7 11 14 8
21 -8 29 16 10 29 -15 12 -15 13 1 19 10 4 19 2 21 -3 2 -6 17 -11 33 -11 19
0 29 -5 29 -15 0 -8 7 -15 15 -15 8 0 15 9 15 20 0 16 7 20 35 20 20 0 38 6
41 13 3 8 25 13 61 13 33 1 59 6 61 13 5 16 42 14 48 -3z m-556 -36 c0 -5 -4
-10 -10 -10 -5 0 -10 5 -10 10 0 6 5 10 10 10 6 0 10 -4 10 -10z m160 -35 c-9
-11 -9 -15 -1 -15 8 0 8 -4 -1 -14 -9 -10 -17 -11 -26 -3 -11 8 -11 12 0 18 7
5 9 9 3 9 -5 0 -1 7 9 15 24 18 34 11 16 -10z m-147 -67 c20 -15 11 -32 -21
-42 -27 -9 -41 16 -22 39 15 18 21 19 43 3z m107 -8 c0 -5 -4 -10 -9 -10 -6 0
-13 5 -16 10 -3 6 1 10 9 10 9 0 16 -4 16 -10z m1410 -97 c5 -5 1 -139 -8
-235 -2 -11 -8 -14 -22 -11 -24 6 -27 31 -5 40 11 4 15 18 14 47 -1 22 1 59 6
82 6 36 5 42 -12 46 -11 3 -22 15 -26 27 -4 18 -2 20 21 15 15 -4 29 -9 32
-11z m-2324 -334 c3 -6 17 -9 29 -6 25 4 35 -13 35 -64 0 -19 -6 -28 -22 -33
-32 -8 -45 -7 -30 3 11 7 11 9 -2 14 -9 4 -16 2 -16 -3 0 -6 -4 -10 -9 -10 -5
0 -7 9 -4 20 4 16 11 19 32 14 l26 -6 -30 21 -30 21 40 -5 40 -5 -30 14 c-16
8 -33 12 -36 10 -4 -2 -9 3 -13 11 -6 17 9 20 20 4z m-13 -116 c-7 -2 -19 -2
-25 0 -7 3 -2 5 12 5 14 0 19 -2 13 -5z m47 -13 c0 -5 -4 -10 -10 -10 -5 0
-10 5 -10 10 0 6 5 10 10 10 6 0 10 -4 10 -10z m17 -37 c-3 -10 -5 -2 -5 17 0
19 2 27 5 18 2 -10 2 -26 0 -35z m-70 11 c-3 -3 -12 -4 -19 -1 -8 3 -5 6 6 6
11 1 17 -2 13 -5z m53 -10 c0 -8 -4 -12 -10 -9 -5 3 -10 10 -10 16 0 5 5 9 10
9 6 0 10 -7 10 -16z m20 -84 c0 -5 -7 -10 -15 -10 -8 0 -15 5 -15 10 0 6 7 10
15 10 8 0 15 -4 15 -10z m604 -55 c3 -8 1 -15 -4 -15 -6 0 -10 7 -10 15 0 8 2
15 4 15 2 0 6 -7 10 -15z m-604 -16 c0 -5 -7 -9 -15 -9 -8 0 -15 7 -15 15 0 9
6 12 15 9 8 -4 15 -10 15 -15z m0 -56 c0 -20 -3 -24 -11 -16 -7 7 -9 19 -6 27
10 24 17 19 17 -11z m1567 1 c-3 -3 -12 -4 -19 -1 -8 3 -5 6 6 6 11 1 17 -2
13 -5z m-70 -20 c-3 -3 -12 -4 -19 -1 -8 3 -5 6 6 6 11 1 17 -2 13 -5z m168
-74 c-27 -12 -35 -12 -35 0 0 6 12 10 28 9 24 0 25 -1 7 -9z m281 -116 c-7
-99 -21 -149 -49 -172 -39 -32 -231 -61 -318 -48 -24 4 -55 16 -69 27 -15 11
-18 17 -7 13 11 -4 17 -1 17 9 0 29 49 57 99 57 26 0 73 7 104 15 32 8 67 15
77 15 11 0 20 5 20 10 0 6 11 10 24 10 31 0 78 18 88 33 4 7 8 38 8 70 0 31 3
57 6 57 4 0 4 -43 0 -96z m-1946 34 c0 -16 -3 -19 -11 -11 -6 6 -8 16 -5 22
11 17 16 13 16 -11z m2004 -148 c2 -30 2 -45 -1 -32 -7 34 -21 26 -28 -17 -4
-22 -13 -45 -21 -52 -7 -6 -12 -15 -9 -19 3 -4 -37 -8 -88 -7 -50 0 -130 -2
-177 -6 -81 -6 -82 -6 -12 3 98 11 202 37 240 60 25 15 35 33 54 94 25 85 36
79 42 -24z m-2007 -7 c-3 -10 -5 -4 -5 12 0 17 2 24 5 18 2 -7 2 -21 0 -30z
m2306 -130 c-7 -2 -21 -2 -30 0 -10 3 -4 5 12 5 17 0 24 -2 18 -5z m-452 -54
c15 -15 16 -19 4 -19 -8 0 -15 -8 -15 -18 0 -11 -11 -24 -25 -30 -14 -6 -25
-16 -25 -22 0 -15 -68 26 -95 58 -18 21 -21 31 -13 45 9 17 18 18 80 12 48 -5
76 -13 89 -26z m539 16 c0 -8 -9 -15 -20 -15 -22 0 -27 15 -7 23 21 9 27 7 27
-8z m-60 -44 c12 -23 13 -31 3 -31 -17 1 -45 29 -38 39 10 17 23 13 35 -8z
m-500 -181 c0 -10 4 -20 10 -22 6 -2 6 -9 0 -18 -12 -20 -20 -10 -27 35 -4 28
-3 36 5 31 7 -4 12 -16 12 -26z m-340 -180 c0 -5 -4 -10 -10 -10 -5 0 -10 -6
-10 -13 0 -8 -18 -22 -40 -33 -22 -10 -40 -26 -39 -34 3 -33 -3 -38 -60 -44
l-60 -7 11 -30 c6 -17 16 -28 22 -26 8 3 12 -4 12 -17 -1 -13 5 -21 16 -21 20
0 59 -35 52 -46 -3 -5 0 -9 5 -9 6 0 11 -9 11 -20 0 -11 -6 -20 -14 -20 -8 0
-24 -11 -37 -24 -20 -21 -25 -22 -35 -9 -12 18 -34 10 -34 -13 0 -8 -4 -14 -9
-14 -5 0 -7 8 -4 19 4 16 0 18 -26 15 -27 -3 -34 2 -56 37 -14 22 -31 52 -37
67 -7 15 -18 34 -25 43 -10 12 -12 37 -7 101 l7 85 60 7 c33 3 92 6 131 7 39
0 89 4 111 8 57 12 65 12 65 1z m-640 -454 c0 -2 -8 -10 -17 -17 -16 -13 -17
-12 -4 4 13 16 21 21 21 13z m-70 -157 c-11 -38 -20 -49 -20 -25 0 17 17 56
25 56 2 0 0 -14 -5 -31z m264 -79 c3 0 22 -12 43 -26 28 -19 37 -31 35 -47 -3
-18 -2 -19 12 -8 19 16 36 6 36 -20 0 -15 5 -19 19 -14 12 4 21 0 25 -11 4 -9
9 -14 13 -10 4 3 24 -10 45 -31 21 -20 38 -33 38 -28 0 4 9 0 20 -10 12 -11
45 -21 82 -25 l63 -8 -68 1 c-83 0 -95 -8 -25 -18 l53 -8 -40 -12 c-36 -11
-37 -12 -15 -18 14 -4 69 -4 123 0 87 5 99 4 115 -13 12 -14 28 -18 54 -16 33
3 38 0 44 -22 3 -14 3 -29 0 -35 -4 -5 -2 -12 3 -16 5 -3 9 -18 8 -33 -3 -31
-31 -48 -137 -83 -106 -35 -138 -39 -194 -22 -67 20 -248 93 -263 107 -23 20
-92 164 -112 233 -23 80 -44 220 -34 236 4 6 15 0 29 -16 13 -15 25 -27 28
-27z m2056 44 c93 -19 194 -289 251 -669 25 -170 26 -162 -13 -157 l-31 5 21
-24 c12 -12 22 -31 22 -41 0 -26 20 -12 21 15 1 12 6 -9 10 -48 10 -79 3 -155
-11 -120 -6 13 -9 15 -9 5 -1 -13 -2 -13 -12 0 -9 12 -10 11 -6 -7 3 -13 1
-23 -4 -23 -5 0 -9 9 -9 20 0 11 -7 20 -15 20 -8 0 -15 -4 -15 -10 0 -5 -11
-10 -24 -10 -19 0 -26 8 -34 38 -5 20 -29 84 -52 142 -23 58 -47 126 -55 152
-14 51 -13 54 46 90 25 16 26 20 18 67 -4 28 -10 54 -13 59 -2 4 -19 71 -36
147 -23 105 -44 166 -81 242 -27 56 -49 105 -49 108 0 7 41 6 80 -1z m-2356
-91 c-2 -20 -7 -39 -11 -42 -3 -3 -4 4 -1 16 3 12 1 24 -6 26 -8 3 -7 9 3 20
19 24 21 22 15 -20z m-664 -683 c0 -5 -4 -10 -10 -10 -5 0 -10 5 -10 10 0 6 5
10 10 10 6 0 10 -4 10 -10z m1410 -105 c0 -9 -6 -12 -16 -8 -13 5 -13 7 -2 14
17 11 18 11 18 -6z m47 -77 c-3 -7 -5 -2 -5 12 0 14 2 19 5 13 2 -7 2 -19 0
-25z m-10 -113 c-2 -62 -6 -85 -15 -85 -10 0 -12 15 -7 63 13 132 24 144 22
22z m-357 -2 c-31 -3 -40 -7 -30 -14 11 -6 5 -9 -20 -9 -33 1 -34 2 -16 15 12
9 38 14 65 13 l46 -1 -45 -4z m280 -3 c13 -8 13 -10 -2 -10 -9 0 -20 5 -23 10
-8 13 5 13 25 0z m1898 -5 c2 -2 4 -9 6 -17 1 -7 5 -19 10 -27 10 -16 4 -14
-41 14 -41 25 -45 50 -6 40 16 -4 29 -8 31 -10z m-2290 -16 c2 -5 10 -9 17 -9
7 0 16 -13 20 -30 6 -26 11 -30 40 -30 19 0 37 5 40 10 9 14 51 12 63 -3 9
-10 0 -13 -44 -13 -39 0 -59 -5 -71 -18 -17 -17 -17 -18 12 -12 35 6 124 10
145 6 8 -2 -19 -7 -60 -11 -126 -13 -150 -19 -150 -39 0 -24 -46 -53 -71 -45
-10 4 -34 2 -52 -4 -27 -9 -40 -8 -66 5 -25 12 -47 15 -92 10 -61 -7 -75 -2
-36 14 l22 9 -22 0 c-13 1 -49 -8 -80 -18 -32 -11 -76 -22 -98 -26 -36 -6 -38
-5 -21 8 32 24 1 29 -69 12 -36 -9 -71 -14 -77 -12 -7 3 -3 6 9 6 12 1 34 6
49 13 27 12 26 12 -22 24 -27 6 -39 12 -26 13 39 2 68 43 40 54 -7 3 2 8 19
12 18 4 30 11 27 16 -3 5 15 9 40 9 25 0 48 5 51 10 3 6 0 10 -7 11 -7 1 7 5
31 10 25 5 48 14 52 20 9 15 125 2 142 -15 12 -14 109 -2 115 14 2 4 21 6 42
3 27 -4 40 -2 40 6 0 14 43 4 48 -10z m741 11 c11 -5 31 -6 47 -1 19 5 40 3
59 -5 17 -7 43 -13 58 -14 16 0 26 -4 22 -10 -4 -6 6 -10 22 -9 23 0 25 2 9 8
-27 10 -11 17 57 25 62 8 79 -6 25 -20 -30 -7 -28 -8 25 -12 39 -2 60 -8 64
-18 4 -12 8 -12 21 -2 13 11 15 10 10 -9 -8 -30 14 -30 42 -1 11 12 20 16 20
9 0 -17 -25 -41 -44 -41 -9 0 -21 -9 -28 -20 -7 -11 -23 -20 -35 -20 -13 0
-23 -4 -23 -10 0 -5 13 -10 29 -10 16 0 31 -6 34 -12 2 -7 8 0 12 15 7 25 11
27 36 22 19 -4 29 -3 29 5 0 17 64 40 107 39 38 -1 38 -1 -12 -13 -32 -7 -50
-16 -50 -26 0 -10 -13 -16 -42 -18 -36 -3 -43 -7 -43 -24 0 -19 -4 -20 -47
-14 -27 4 -84 9 -128 12 -75 4 -78 4 -50 -10 28 -13 25 -14 -54 -12 -54 2 -86
7 -89 14 -2 7 8 13 25 13 92 5 112 10 73 19 -21 5 -40 5 -46 -1 -8 -7 -14 -6
-17 3 -3 10 -7 10 -17 1 -9 -8 -19 -9 -32 -2 -20 11 -46 1 -69 -27 -12 -15
-10 -16 27 -13 28 3 41 0 41 -8 0 -15 -41 -17 -67 -3 -13 7 -19 6 -24 -5 -7
-20 -35 -19 -58 2 -21 19 -25 41 -4 24 18 -15 68 -10 74 7 2 6 -3 12 -12 12
-9 0 -16 -5 -16 -11 0 -5 -5 -7 -10 -4 -6 4 -8 11 -5 16 4 5 -8 9 -24 9 -17 0
-31 5 -31 10 0 6 -9 10 -21 10 -12 0 -17 -4 -14 -11 5 -7 -9 -10 -44 -8 -28 2
-54 -1 -58 -5 -5 -5 25 -6 65 -4 81 6 98 -6 23 -16 -91 -12 -138 34 -49 48 30
5 39 10 34 22 -3 8 -2 12 4 9 31 -19 97 38 66 57 -6 4 14 8 44 9 30 1 47 3 38
6 -19 5 -23 15 -11 26 8 9 11 9 32 -3z m361 -10 c0 -5 -4 -10 -10 -10 -5 0
-10 5 -10 10 0 6 5 10 10 10 6 0 10 -4 10 -10z m85 -11 c4 -6 32 -8 76 -4 45
4 69 2 69 -5 0 -5 -15 -11 -32 -11 -23 -1 -26 -3 -11 -6 14 -3 20 -9 17 -18
-5 -11 -12 -10 -42 5 -21 10 -58 21 -84 25 -54 7 -74 25 -29 25 16 0 33 -5 36
-11z m-935 -19 c0 -5 -5 -10 -11 -10 -5 0 -7 5 -4 10 3 6 8 10 11 10 2 0 4 -4
4 -10z m-56 -15 c3 -8 12 -15 21 -15 8 0 15 -4 15 -10 0 -14 -48 9 -54 26 -3
8 -1 14 3 14 5 0 11 -7 15 -15z m126 0 c0 -1 -9 -5 -20 -8 -12 -3 -20 0 -20 8
0 8 8 11 20 8 11 -3 20 -7 20 -8z m2017 -7 c-3 -8 -6 -5 -6 6 -1 11 2 17 5 13
3 -3 4 -12 1 -19z m-1808 -54 c10 -9 -35 -3 -49 6 -11 8 -7 9 15 4 17 -4 32
-8 34 -10z m798 -20 c-3 -3 -12 -4 -19 -1 -8 3 -5 6 6 6 11 1 17 -2 13 -5z
m-532 -34 c-27 -12 -43 -12 -25 0 8 5 22 9 30 9 10 0 8 -3 -5 -9z m435 -26 c0
-2 -7 -4 -15 -4 -8 0 -15 4 -15 10 0 5 7 7 15 4 8 -4 15 -8 15 -10z m1413 2
c3 -8 -2 -16 -14 -19 -10 -3 -19 0 -19 6 0 6 -6 3 -13 -8 -8 -10 -18 -16 -23
-13 -5 3 -46 -2 -91 -12 -46 -10 -83 -15 -83 -11 0 3 -5 -1 -11 -9 -8 -12 -12
-12 -16 -2 -4 10 -8 10 -21 0 -13 -11 -14 -10 -4 9 14 26 26 30 151 53 122 22
138 23 144 6z m-3399 -57 c-3 -6 -7 -34 -7 -63 0 -30 -2 -39 -4 -21 -3 16 -10
33 -16 37 -9 6 -9 8 1 8 6 0 12 11 12 25 0 14 5 25 11 25 5 0 7 -5 3 -11z
m2410 -14 c-4 -8 -8 -15 -10 -15 -2 0 -4 7 -4 15 0 8 4 15 10 15 5 0 7 -7 4
-15z m225 -129 c-2 -2 -13 8 -23 22 l-19 27 24 -22 c12 -12 21 -24 18 -27z"/>
<path d="M818 4323 c7 -3 16 -2 19 1 4 3 -2 6 -13 5 -11 0 -14 -3 -6 -6z"/>
<path d="M797 3769 c7 -7 15 -10 18 -7 3 3 -2 9 -12 12 -14 6 -15 5 -6 -5z"/>
<path d="M795 3480 c3 -5 15 -10 26 -10 11 0 17 5 14 10 -3 6 -15 10 -26 10
-11 0 -17 -4 -14 -10z"/>
<path d="M2488 3383 c7 -3 16 -2 19 1 4 3 -2 6 -13 5 -11 0 -14 -3 -6 -6z"/>
<path d="M1888 2993 c17 -2 47 -2 65 0 17 2 3 4 -33 4 -36 0 -50 -2 -32 -4z"/>
<path d="M1708 2953 c6 -2 18 -2 25 0 6 3 1 5 -13 5 -14 0 -19 -2 -12 -5z"/>
<path d="M1658 2943 c7 -3 16 -2 19 1 4 3 -2 6 -13 5 -11 0 -14 -3 -6 -6z"/>
<path d="M1608 2933 c7 -3 16 -2 19 1 4 3 -2 6 -13 5 -11 0 -14 -3 -6 -6z"/>
<path d="M1540 2919 c-14 -6 -43 -14 -65 -18 -36 -6 -40 -9 -37 -35 2 -15 12
-38 23 -49 11 -12 22 -33 25 -47 3 -14 22 -67 42 -119 48 -121 63 -133 174
-137 l83 -2 -75 7 c-88 9 -98 13 -126 49 -46 58 -90 264 -66 309 6 11 26 27
44 36 36 18 19 22 -22 6z"/>
<path d="M1322 2847 c-16 -19 -27 -71 -13 -63 6 4 11 14 11 22 0 9 5 12 12 8
8 -5 9 0 5 15 -4 17 -2 21 9 17 8 -3 14 -1 14 4 0 14 -26 12 -38 -3z"/>
<path d="M1790 2707 c-36 -7 -46 -12 -30 -14 14 -2 48 3 75 11 59 17 33 18
-45 3z"/>
<path d="M1943 2526 c-44 -24 -65 -51 -99 -126 -27 -57 -34 -85 -32 -120 4
-60 27 -60 49 1 10 25 28 61 41 80 33 49 84 180 70 178 -4 -1 -17 -7 -29 -13z"/>
<path d="M1471 2405 c0 -22 4 -47 9 -55 7 -11 9 -8 9 15 -1 17 -5 41 -9 55 -7
22 -8 20 -9 -15z"/>
<path d="M2811 2694 c0 -11 3 -14 6 -6 3 7 2 16 -1 19 -3 4 -6 -2 -5 -13z"/>
<path d="M2185 2050 c-25 -5 -27 -7 -12 -13 25 -10 55 -9 61 2 8 13 -14 18
-49 11z"/>
<path d="M4071 904 c0 -11 3 -14 6 -6 3 7 2 16 -1 19 -3 4 -6 -2 -5 -13z"/>
<path d="M4166 775 c8 -37 14 -45 14 -19 0 10 -5 26 -10 34 -8 11 -9 7 -4 -15z"/>
<path d="M4191 744 c0 -11 3 -14 6 -6 3 7 2 16 -1 19 -3 4 -6 -2 -5 -13z"/>
<path d="M4150 561 c0 -17 18 -21 24 -6 3 9 0 15 -9 15 -8 0 -15 -4 -15 -9z"/>
<path d="M4136 515 c-3 -8 -1 -15 4 -15 6 0 10 7 10 15 0 8 -2 15 -4 15 -2 0
-6 -7 -10 -15z"/>
<path d="M1613 383 c9 -2 23 -2 30 0 6 3 -1 5 -18 5 -16 0 -22 -2 -12 -5z"/>
<path d="M1410 331 l-25 -7 26 -5 c17 -4 26 -1 26 8 0 7 -1 13 -1 12 -1 -1
-12 -4 -26 -8z"/>
<path d="M1350 297 c0 -7 37 -47 44 -47 14 0 4 19 -19 34 -14 9 -25 15 -25 13z"/>
<path d="M1388 293 c7 -3 16 -2 19 1 4 3 -2 6 -13 5 -11 0 -14 -3 -6 -6z"/>
<path d="M1328 273 c7 -3 16 -2 19 1 4 3 -2 6 -13 5 -11 0 -14 -3 -6 -6z"/>
<path d="M1418 273 c7 -3 16 -2 19 1 4 3 -2 6 -13 5 -11 0 -14 -3 -6 -6z"/>
<path d="M1450 260 c0 -6 7 -10 15 -10 8 0 15 2 15 4 0 2 -7 6 -15 10 -8 3
-15 1 -15 -4z"/>
<path d="M1680 260 c0 -13 11 -13 30 0 12 8 11 10 -7 10 -13 0 -23 -4 -23 -10z"/>
<path d="M1768 233 c7 -3 16 -2 19 1 4 3 -2 6 -13 5 -11 0 -14 -3 -6 -6z"/>
<path d="M2508 303 c7 -3 16 -2 19 1 4 3 -2 6 -13 5 -11 0 -14 -3 -6 -6z"/>
<path d="M2906 271 c-4 -5 3 -7 14 -4 23 6 26 13 6 13 -8 0 -17 -4 -20 -9z"/>
<path d="M3777 4564 c-10 -19 -17 -45 -17 -57 0 -23 -48 -166 -69 -205 -7 -13
-10 -30 -7 -38 3 -8 2 -24 -3 -37 -9 -23 2 -57 18 -57 10 0 51 96 51 118 0 8
3 12 7 9 3 -4 12 -2 19 4 16 13 48 4 39 -11 -3 -5 9 -1 28 10 32 19 67 71 67
99 0 20 -28 23 -55 5 -34 -22 -45 -10 -14 16 47 38 59 54 50 63 -5 5 -2 16 8
27 9 10 21 25 26 32 6 8 18 23 28 35 l18 21 -89 1 -89 0 -16 -35z"/>
<path d="M3952 4554 c-54 -59 -54 -83 -1 -33 44 42 54 46 65 27 5 -7 10 -4 16
11 21 57 -27 54 -80 -5z"/>
<path d="M3636 4523 c-14 -135 -25 -284 -25 -365 -1 -94 6 -104 58 -86 14 5
45 8 70 7 25 0 90 6 143 15 68 11 105 13 123 6 14 -5 25 -6 25 -1 0 9 94 22
170 25 36 1 44 -2 41 -14 -2 -8 -6 -64 -7 -125 -2 -86 -1 -99 6 -60 4 28 9 79
9 115 1 36 5 71 9 78 5 7 28 12 58 12 27 0 103 8 169 19 91 16 103 19 50 15
-38 -3 -134 -7 -211 -10 -78 -2 -155 -9 -170 -15 -16 -7 -63 -13 -104 -14
-118 -4 -274 -15 -279 -20 -2 -3 -10 0 -18 6 -9 9 -10 15 -3 24 15 18 -19 28
-51 17 -24 -9 -24 -9 11 -31 24 -14 29 -21 17 -21 -29 0 -57 19 -57 39 0 11
-7 22 -16 25 -14 5 -15 30 -10 211 3 113 4 205 2 205 -2 0 -6 -26 -10 -57z"/>
<path d="M3622 4540 c0 -14 2 -19 5 -12 2 6 2 18 0 25 -3 6 -5 1 -5 -13z"/>
<path d="M4528 4283 c7 -3 16 -2 19 1 4 3 -2 6 -13 5 -11 0 -14 -3 -6 -6z"/>
<path d="M4578 4283 c7 -3 16 -2 19 1 4 3 -2 6 -13 5 -11 0 -14 -3 -6 -6z"/>
<path d="M4031 4194 c-27 -19 -30 -24 -14 -24 11 0 28 9 38 19 9 11 34 22 54
24 l36 4 -40 0 c-27 1 -51 -6 -74 -23z"/>
<path d="M4330 4205 c-17 -10 -20 -14 -9 -15 31 0 79 12 79 21 0 14 -42 10
-70 -6z"/>
<path d="M3835 4199 c-55 -5 -52 -6 33 -7 92 -2 121 3 60 9 -18 2 -60 1 -93
-2z"/>
<path d="M4218 4203 c7 -3 16 -2 19 1 4 3 -2 6 -13 5 -11 0 -14 -3 -6 -6z"/>
<path d="M3745 4189 c-4 -6 -5 -12 -2 -15 2 -3 7 2 10 11 7 17 1 20 -8 4z"/>
<path d="M3484 4181 c3 -5 14 -11 25 -14 14 -3 18 -1 14 9 -3 8 -14 14 -25 14
-10 0 -17 -4 -14 -9z"/>
<path d="M3868 4163 c6 -2 18 -2 25 0 6 3 1 5 -13 5 -14 0 -19 -2 -12 -5z"/>
<path d="M3770 4150 c0 -5 4 -10 9 -10 6 0 13 5 16 10 3 6 -1 10 -9 10 -9 0
-16 -4 -16 -10z"/>
<path d="M3778 4123 c7 -3 16 -2 19 1 4 3 -2 6 -13 5 -11 0 -14 -3 -6 -6z"/>
<path d="M3570 4110 c0 -5 5 -10 11 -10 5 0 7 5 4 10 -3 6 -8 10 -11 10 -2 0
-4 -4 -4 -10z"/>
<path d="M3540 4070 c-12 -7 -12 -12 -2 -22 9 -9 15 -10 20 -2 4 6 16 16 27
22 19 11 19 11 -5 12 -14 0 -32 -5 -40 -10z"/>
<path d="M3945 4020 c3 -5 15 -10 26 -10 11 0 17 5 14 10 -3 6 -15 10 -26 10
-11 0 -17 -4 -14 -10z"/>
<path d="M3611 3993 c-1 -22 -2 -22 -42 -8 -52 19 -52 19 -37 -5 9 -14 23 -19
54 -18 28 0 52 -7 71 -20 24 -17 32 -18 52 -8 20 11 21 14 6 19 -9 4 -28 7
-41 7 -13 0 -24 5 -24 10 0 6 -6 10 -14 10 -8 0 -17 8 -19 18 -4 13 -5 12 -6
-5z"/>
<path d="M3780 3971 c0 -5 7 -12 16 -15 24 -9 28 -7 14 9 -14 17 -30 20 -30 6z"/>
<path d="M3230 3899 c0 -5 5 -7 10 -4 6 3 10 8 10 11 0 2 -4 4 -10 4 -5 0 -10
-5 -10 -11z"/>
<path d="M4223 3640 c0 -25 2 -35 4 -22 2 12 2 32 0 45 -2 12 -4 2 -4 -23z"/>
<path d="M4161 3645 c0 -11 4 -29 9 -40 l9 -20 0 20 c0 11 -4 29 -9 40 l-9 20
0 -20z"/>
<path d="M4191 3534 c0 -11 3 -14 6 -6 3 7 2 16 -1 19 -3 4 -6 -2 -5 -13z"/>
<path d="M4200 3410 c0 -25 4 -39 10 -35 6 3 10 19 10 35 0 16 -4 32 -10 35
-6 4 -10 -10 -10 -35z"/>
<path d="M3982 3318 c-19 -16 -31 -32 -29 -35 3 -3 21 9 39 25 42 40 33 49
-10 10z"/>
<path d="M3669 3293 c-13 -16 -12 -17 4 -4 9 7 17 15 17 17 0 8 -8 3 -21 -13z"/>
<path d="M3199 3280 c-31 -26 -15 -26 18 0 14 11 21 20 15 20 -5 0 -20 -9 -33
-20z"/>
<path d="M3475 3290 c-3 -5 -2 -10 4 -10 5 0 13 5 16 10 3 6 2 10 -4 10 -5 0
-13 -4 -16 -10z"/>
<path d="M4191 3258 l-1 -48 -44 0 c-25 0 -48 -5 -52 -11 -5 -9 9 -10 52 -4
32 4 59 8 60 8 1 1 -2 25 -6 52 l-7 50 -2 -47z"/>
<path d="M4578 3243 c7 -3 16 -2 19 1 4 3 -2 6 -13 5 -11 0 -14 -3 -6 -6z"/>
<path d="M3426 3223 c-6 -14 -5 -15 5 -6 7 7 10 15 7 18 -3 3 -9 -2 -12 -12z"/>
<path d="M4395 3229 c-4 -6 -5 -12 -2 -15 2 -3 7 2 10 11 7 17 1 20 -8 4z"/>
<path d="M4518 3223 c7 -3 16 -2 19 1 4 3 -2 6 -13 5 -11 0 -14 -3 -6 -6z"/>
<path d="M4220 3210 c0 -5 15 -10 34 -10 19 0 38 5 41 10 4 6 -10 10 -34 10
-23 0 -41 -4 -41 -10z"/>
<path d="M4468 3213 c6 -2 18 -2 25 0 6 3 1 5 -13 5 -14 0 -19 -2 -12 -5z"/>
<path d="M3938 3193 c23 -2 61 -2 85 0 23 2 4 4 -43 4 -47 0 -66 -2 -42 -4z"/>
<path d="M3540 3180 l-85 -6 85 -2 c47 -1 92 3 100 8 13 9 13 10 0 8 -8 -1
-53 -5 -100 -8z"/>
<path d="M3393 3173 c9 -2 23 -2 30 0 6 3 -1 5 -18 5 -16 0 -22 -2 -12 -5z"/>
<path d="M3218 3163 c12 -2 30 -2 40 0 9 3 -1 5 -23 4 -22 0 -30 -2 -17 -4z"/>
<path d="M3578 3133 c5 -21 7 -23 10 -9 2 10 0 22 -6 28 -6 6 -7 0 -4 -19z"/>
<path d="M3583 2770 c0 -25 2 -35 4 -22 2 12 2 32 0 45 -2 12 -4 2 -4 -23z"/>
<path d="M3541 2724 c0 -11 3 -14 6 -6 3 7 2 16 -1 19 -3 4 -6 -2 -5 -13z"/>
<path d="M3577 2661 c-4 -18 -7 -50 -6 -70 1 -36 1 -36 10 9 5 25 8 56 7 70
-3 22 -4 21 -11 -9z"/>
<path d="M3571 2524 c0 -11 3 -14 6 -6 3 7 2 16 -1 19 -3 4 -6 -2 -5 -13z"/>
<path d="M3323 2453 c20 -2 37 -8 37 -14 0 -5 15 -9 33 -9 53 1 6 21 -56 24
-29 2 -35 1 -14 -1z"/>
<path d="M3572 2330 c0 -14 2 -19 5 -12 2 6 2 18 0 25 -3 6 -5 1 -5 -13z"/>
<path d="M3199 2327 c5 -5 24 -7 42 -5 33 3 33 4 -8 8 -23 3 -39 2 -34 -3z"/>
<path d="M3930 2330 c8 -5 24 -9 35 -9 l20 0 -20 9 c-11 5 -27 9 -35 9 -13 1
-13 0 0 -9z"/>
<path d="M3288 2323 c7 -3 16 -2 19 1 4 3 -2 6 -13 5 -11 0 -14 -3 -6 -6z"/>
<path d="M4418 2323 c6 -2 18 -2 25 0 6 3 1 5 -13 5 -14 0 -19 -2 -12 -5z"/>
<path d="M4173 2313 c15 -2 27 -8 27 -12 0 -4 15 -5 33 -2 l32 5 -30 7 c-16 4
-43 6 -60 6 -30 0 -30 0 -2 -4z"/>
<path d="M4508 2303 c7 -3 16 -2 19 1 4 3 -2 6 -13 5 -11 0 -14 -3 -6 -6z"/>
<path d="M4210 2250 c0 -3 -3 -52 -5 -110 l-4 -105 9 100 c6 55 8 105 6 110
-3 6 -5 8 -6 5z"/>
<path d="M3698 2203 c6 -2 18 -2 25 0 6 3 1 5 -13 5 -14 0 -19 -2 -12 -5z"/>
<path d="M4193 1990 c0 -25 2 -35 4 -22 2 12 2 32 0 45 -2 12 -4 2 -4 -23z"/>
<path d="M4138 1947 c-26 -22 -53 -65 -46 -72 2 -2 23 18 46 45 45 53 45 65 0
27z"/>
<path d="M4182 1665 c0 -16 2 -22 5 -12 2 9 2 23 0 30 -3 6 -5 -1 -5 -18z"/>
<path d="M4173 1560 c0 -36 2 -50 4 -32 2 17 2 47 0 65 -2 17 -4 3 -4 -33z"/>
<path d="M4422 1456 c-48 -27 -36 -30 23 -6 11 5 27 11 35 13 8 3 4 5 -10 5
-14 0 -35 -6 -48 -12z"/>
<path d="M4540 1440 c-14 -4 -41 -9 -60 -10 l-35 -3 35 -6 c42 -8 127 9 108
21 -15 9 -14 9 -48 -2z"/>
<path d="M4540 1266 c0 -2 7 -23 16 -47 8 -24 21 -73 28 -109 l14 -65 1 113 1
112 -30 0 c-16 0 -30 -2 -30 -4z"/>
<path d="M1055 1167 c-11 -7 -36 -19 -55 -27 -19 -7 -56 -28 -83 -47 -26 -18
-50 -33 -55 -33 -4 -1 -22 -14 -41 -30 l-33 -29 36 3 c20 2 40 7 44 11 4 4 -4
4 -18 1 -21 -6 -22 -5 -7 4 9 6 25 9 35 6 12 -4 32 7 59 31 23 21 52 45 64 53
30 20 85 69 79 70 -3 0 -14 -6 -25 -13z"/>
<path d="M1070 1014 c0 -10 7 -14 22 -12 32 5 35 28 4 28 -17 0 -26 -5 -26
-16z"/>
<path d="M721 728 c-1 -13 -9 -18 -29 -18 -34 0 -62 -27 -62 -61 0 -19 -2 -21
-10 -9 -7 12 -11 10 -18 -10 -18 -47 -33 -201 -31 -313 2 -62 2 -158 2 -214
l-1 -103 77 0 77 0 12 237 c7 131 19 281 27 333 11 76 12 101 2 123 -7 15 -17
25 -24 23 -6 -3 -14 3 -16 12 -4 16 -5 15 -6 0z"/>
<path d="M2257 283 c-4 -3 -7 -11 -7 -17 0 -6 5 -5 12 2 6 6 9 14 7 17 -3 3
-9 2 -12 -2z"/>
<path d="M3416 154 c-3 -26 -6 -71 -6 -100 0 -47 2 -54 20 -54 19 0 20 7 20
100 0 78 -3 100 -14 100 -8 0 -16 -17 -20 -46z"/>
<path d="M2130 83 c-30 -20 -56 -36 -57 -35 -2 1 -3 -1 -4 -5 0 -5 -8 -16 -16
-25 -15 -17 -14 -18 16 -18 23 0 46 11 78 37 31 26 49 34 57 27 71 -52 99 -65
139 -62 l41 3 -88 58 c-48 31 -93 57 -100 57 -6 0 -36 -17 -66 -37z"/>
<path d="M3090 52 c0 -11 100 -52 125 -51 11 0 -2 9 -30 20 -27 11 -54 25 -59
30 -12 11 -36 12 -36 1z"/>
<path d="M845 10 c-3 -5 -1 -10 4 -10 6 0 11 5 11 10 0 6 -2 10 -4 10 -3 0 -8
-4 -11 -10z"/>
</g>
</svg>
